<?xml version="1.0" encoding="UTF-8" ?>
<!DOCTYPE svg PUBLIC "-//W3C//DTD SVG 1.1//EN" "http://www.w3.org/Graphics/SVG/1.1/DTD/svg11.dtd">
<svg width="1152pt" height="378pt" viewBox="0 0 1152 378" version="1.1" xmlns="http://www.w3.org/2000/svg">
<g id="#eeeeeeff">
<path fill="#eeeeee" opacity="1.00" d=" M 374.53 51.74 C 378.30 51.16 382.13 51.07 385.95 51.06 C 402.29 51.06 418.63 51.06 434.97 51.06 C 442.10 51.02 449.35 50.92 456.27 52.85 C 468.08 55.90 478.68 64.24 483.48 75.58 C 486.12 81.69 486.89 88.43 486.76 95.04 C 486.74 119.37 486.76 143.70 486.75 168.03 C 486.69 175.73 487.27 183.62 484.87 191.06 C 481.56 202.35 472.50 211.44 461.70 215.80 C 455.15 218.51 448.01 219.41 440.96 219.42 C 423.99 219.46 407.01 219.42 390.04 219.44 C 383.33 219.44 376.51 219.51 369.97 217.82 C 359.53 215.36 350.00 208.81 344.43 199.59 C 340.49 193.13 338.81 185.50 338.81 177.99 C 338.82 149.32 338.81 120.65 338.82 91.98 C 338.86 83.29 341.33 74.45 346.71 67.53 C 353.35 58.77 363.71 53.25 374.53 51.74 M 384.37 80.63 C 376.50 82.47 370.70 89.95 370.68 98.01 C 370.55 122.33 370.66 146.65 370.63 170.97 C 370.59 176.09 372.17 181.41 375.91 185.06 C 380.34 189.54 386.90 190.96 393.00 190.92 C 405.98 190.96 418.97 190.94 431.96 190.93 C 437.64 190.97 443.68 189.98 448.18 186.25 C 452.77 182.65 454.95 176.74 454.91 171.02 C 454.97 147.35 454.93 123.68 454.93 100.02 C 455.00 94.73 453.40 89.19 449.52 85.44 C 445.23 81.08 438.91 79.57 432.97 79.58 C 420.31 79.54 407.64 79.58 394.98 79.56 C 391.42 79.55 387.81 79.65 384.37 80.63 Z" />
<path fill="#eeeeee" opacity="1.00" d=" M 0.00 53.58 C 34.22 53.26 68.45 53.50 102.67 53.46 C 116.19 53.30 130.16 58.57 138.67 69.38 C 145.46 77.58 147.55 88.57 147.07 98.97 C 146.64 109.57 148.20 120.43 145.47 130.83 C 142.16 143.39 131.79 153.39 119.60 157.45 C 113.33 159.65 106.64 160.20 100.03 160.18 C 82.77 160.19 65.51 160.18 48.25 160.19 C 48.25 169.65 48.24 179.10 48.25 188.56 C 53.54 188.56 58.83 188.56 64.12 188.57 C 64.12 198.06 64.13 207.56 64.12 217.06 C 46.08 217.06 28.04 217.06 10.00 217.06 C 6.66 217.05 3.31 217.25 0.00 216.71 L 0.00 193.93 L 0.47 188.55 C 5.80 188.57 11.12 188.57 16.44 188.56 C 16.43 153.02 16.44 117.48 16.43 81.95 C 10.96 81.81 5.46 82.23 0.00 81.68 L 0.00 53.58 M 48.25 81.94 C 48.25 98.53 48.25 115.11 48.25 131.69 C 63.53 131.65 78.80 131.77 94.08 131.63 C 101.15 131.58 108.69 128.71 112.43 122.40 C 116.10 116.61 115.12 109.51 115.25 103.01 C 115.35 98.08 114.21 92.91 110.92 89.09 C 106.83 84.11 100.20 82.03 93.93 81.97 C 78.71 81.91 63.48 81.96 48.25 81.94 Z" />
<path fill="#eeeeee" opacity="1.00" d=" M 177.31 53.44 C 198.60 53.48 219.88 53.35 241.16 53.50 C 241.08 62.98 241.14 72.46 241.12 81.94 C 235.83 81.94 230.54 81.94 225.25 81.94 C 225.25 117.48 225.24 153.02 225.25 188.56 C 243.32 188.56 261.38 188.57 279.44 188.56 C 279.44 184.60 279.43 180.64 279.44 176.69 C 288.94 176.69 298.44 176.69 307.94 176.69 C 307.94 190.15 307.94 203.60 307.94 217.06 C 264.40 217.06 220.85 217.06 177.31 217.06 C 177.31 207.56 177.30 198.06 177.32 188.56 C 182.69 188.56 188.06 188.57 193.44 188.56 C 193.43 153.02 193.44 117.48 193.43 81.94 C 188.06 81.93 182.68 81.95 177.31 81.93 C 177.32 72.44 177.30 62.94 177.31 53.44 Z" />
<path fill="#eeeeee" opacity="1.00" d=" M 517.95 53.44 C 566.23 53.43 614.52 53.44 662.81 53.43 C 662.82 66.89 662.81 80.35 662.81 93.81 C 652.52 93.82 642.23 93.82 631.94 93.81 C 631.94 89.86 631.94 85.90 631.94 81.94 C 623.35 81.94 614.77 81.94 606.19 81.94 C 606.19 117.48 606.18 153.02 606.19 188.56 C 611.56 188.56 616.93 188.56 622.31 188.57 C 622.31 198.06 622.31 207.56 622.31 217.06 C 600.96 217.06 579.60 217.06 558.25 217.06 C 558.25 207.56 558.23 198.06 558.26 188.56 C 563.63 188.56 569.00 188.57 574.37 188.56 C 574.37 153.02 574.38 117.48 574.37 81.95 C 565.85 81.94 557.33 81.94 548.82 81.95 C 548.81 85.90 548.81 89.86 548.81 93.81 C 538.52 93.82 528.23 93.82 517.94 93.81 C 517.94 80.35 517.93 66.90 517.95 53.44 Z" />
<path fill="#eeeeee" opacity="1.00" d=" M 690.31 53.44 C 706.29 53.44 722.27 53.42 738.25 53.45 C 763.41 89.59 788.57 125.72 813.74 161.85 C 813.76 135.22 813.75 108.58 813.75 81.94 C 808.39 81.94 803.04 81.95 797.69 81.94 C 797.69 72.44 797.69 62.94 797.69 53.44 C 819.02 53.43 840.35 53.44 861.69 53.44 C 861.69 62.94 861.68 72.43 861.69 81.93 C 856.33 81.95 850.98 81.93 845.63 81.94 C 845.63 126.96 845.62 171.98 845.63 216.99 C 835.00 217.01 824.38 216.99 813.75 217.00 C 788.57 180.96 763.43 144.89 738.25 108.84 C 738.25 135.42 738.24 161.99 738.25 188.56 C 743.54 188.56 748.83 188.56 754.12 188.57 C 754.12 198.04 754.12 207.52 754.12 217.00 C 732.85 216.97 711.58 217.11 690.31 217.06 C 690.31 207.56 690.30 198.06 690.32 188.56 C 695.69 188.56 701.06 188.57 706.44 188.55 C 706.43 153.02 706.44 117.48 706.43 81.94 C 701.06 81.93 695.68 81.95 690.31 81.93 C 690.32 72.43 690.30 62.94 690.31 53.44 Z" />
<path fill="#eeeeee" opacity="1.00" d=" M 893.31 53.44 C 914.59 53.46 935.86 53.38 957.14 53.48 C 957.10 62.96 957.13 72.45 957.12 81.94 C 951.83 81.94 946.54 81.94 941.25 81.94 C 941.25 117.48 941.24 153.02 941.25 188.56 C 946.54 188.56 951.83 188.56 957.12 188.57 C 957.12 198.04 957.12 207.52 957.12 217.00 C 935.85 217.00 914.58 217.01 893.31 216.99 C 893.32 207.51 893.29 198.04 893.32 188.56 C 898.69 188.56 904.06 188.57 909.44 188.55 C 909.43 153.02 909.44 117.48 909.43 81.94 C 904.05 81.93 898.68 81.95 893.31 81.93 C 893.31 72.43 893.30 62.94 893.31 53.44 Z" />
<path fill="#eeeeee" opacity="1.00" d=" M 991.32 53.44 C 1007.29 53.44 1023.27 53.43 1039.25 53.44 C 1039.24 75.96 1039.25 98.48 1039.24 120.99 C 1044.74 121.01 1050.24 121.00 1055.74 121.00 C 1075.59 98.48 1095.41 75.93 1115.28 53.43 C 1126.35 53.45 1137.43 53.42 1148.50 53.44 C 1148.49 62.94 1148.50 72.44 1148.50 81.94 C 1142.96 81.94 1137.42 81.94 1131.89 81.94 C 1115.89 99.75 1099.73 117.43 1083.83 135.33 C 1100.79 153.01 1117.62 170.81 1134.51 188.55 C 1140.10 188.58 1145.70 188.55 1151.31 188.57 C 1151.31 198.04 1151.31 207.52 1151.31 217.00 C 1140.54 217.00 1129.78 217.00 1119.01 217.00 C 1097.92 194.51 1076.85 172.00 1055.76 149.50 C 1050.25 149.50 1044.75 149.49 1039.25 149.51 C 1039.25 172.00 1039.25 194.50 1039.25 217.00 C 1023.27 217.00 1007.29 217.01 991.31 216.99 C 991.31 207.52 991.31 198.04 991.31 188.57 C 996.68 188.55 1002.06 188.57 1007.44 188.55 C 1007.43 153.02 1007.44 117.48 1007.43 81.94 C 1002.05 81.93 996.68 81.95 991.31 81.93 C 991.31 72.43 991.30 62.94 991.32 53.44 Z" />
<path fill="#eeeeee" opacity="1.00" d=" M 822.13 269.08 C 829.39 268.30 836.74 268.94 844.05 268.74 C 849.06 268.79 854.51 268.14 859.02 270.85 C 863.28 273.22 865.56 278.20 865.47 282.96 C 865.43 294.97 865.53 306.98 865.42 318.99 C 865.35 325.18 860.59 330.81 854.44 331.74 C 847.01 332.71 839.49 332.08 832.02 332.27 C 826.55 332.18 820.41 332.66 815.83 329.08 C 812.06 326.34 810.63 321.49 810.72 317.01 C 810.79 305.27 810.66 293.54 810.78 281.80 C 810.95 275.51 815.88 269.94 822.13 269.08 M 827.47 274.53 C 822.55 274.79 818.20 279.08 818.30 284.08 C 818.22 294.74 818.28 305.41 818.27 316.07 C 818.19 319.54 819.83 323.25 823.03 324.88 C 827.60 327.42 833.02 326.28 838.01 326.53 C 842.96 326.27 848.27 327.40 852.89 325.08 C 856.26 323.51 857.97 319.68 857.98 316.10 C 857.99 305.35 858.06 294.59 857.94 283.85 C 857.79 278.90 853.50 274.71 848.59 274.52 C 841.55 274.43 834.50 274.41 827.47 274.53 Z" />
<path fill="#eeeeee" opacity="1.00" d=" M 12.00 269.53 C 18.33 269.53 24.67 269.53 31.00 269.53 C 31.00 271.44 31.00 273.35 31.00 275.27 C 29.20 275.26 27.41 275.26 25.62 275.26 C 30.44 289.56 35.12 303.91 39.84 318.24 C 44.41 301.99 49.08 285.77 53.67 269.53 C 56.21 269.53 58.74 269.53 61.28 269.52 C 65.89 285.83 70.61 302.10 75.15 318.43 C 79.76 304.00 84.59 289.63 89.38 275.26 C 87.67 275.26 85.97 275.26 84.28 275.27 C 84.27 273.34 84.27 271.41 84.26 269.49 C 90.50 269.58 96.75 269.51 103.00 269.53 C 103.00 271.44 103.00 273.35 103.00 275.26 C 101.19 275.26 99.39 275.26 97.58 275.27 C 91.32 293.97 84.92 312.62 78.50 331.27 C 76.05 331.26 73.60 331.26 71.15 331.29 C 66.60 315.53 61.99 299.79 57.43 284.03 C 53.01 299.80 48.36 315.51 43.91 331.27 C 41.41 331.26 38.91 331.26 36.40 331.29 C 30.07 312.60 23.70 293.93 17.29 275.27 C 15.53 275.26 13.76 275.26 12.00 275.26 C 12.00 273.35 12.00 271.44 12.00 269.53 Z" />
<path fill="#eeeeee" opacity="1.00" d=" M 135.25 269.49 C 152.17 269.58 169.08 269.51 186.00 269.53 C 186.00 272.93 186.00 276.33 185.99 279.74 C 183.57 279.73 181.15 279.73 178.73 279.72 C 178.73 278.23 178.73 276.74 178.72 275.26 C 168.63 275.27 158.55 275.26 148.46 275.27 C 148.48 282.35 148.45 289.44 148.48 296.52 C 157.07 296.54 165.67 296.54 174.27 296.52 C 174.26 294.68 174.27 292.84 174.27 291.01 C 176.60 291.00 178.93 291.00 181.26 291.00 C 181.27 296.57 181.26 302.15 181.27 307.72 C 178.94 307.73 176.60 307.73 174.27 307.73 C 174.27 305.90 174.26 304.08 174.27 302.26 C 165.66 302.27 157.06 302.26 148.46 302.27 C 148.48 310.02 148.45 317.77 148.48 325.52 C 158.64 325.55 168.81 325.51 178.98 325.54 C 178.99 324.11 179.00 322.69 179.01 321.27 C 181.43 321.26 183.85 321.26 186.27 321.27 C 186.26 324.60 186.27 327.93 186.26 331.26 C 169.27 331.28 152.27 331.25 135.28 331.27 C 135.27 329.34 135.26 327.41 135.25 325.49 C 137.17 325.52 139.08 325.53 141.00 325.54 C 141.00 308.78 141.01 292.02 140.99 275.26 C 139.09 275.26 137.18 275.26 135.27 275.27 C 135.27 273.34 135.26 271.42 135.25 269.49 Z" />
<path fill="#eeeeee" opacity="1.00" d=" M 222.25 269.49 C 235.11 269.66 247.98 269.35 260.84 269.65 C 265.55 269.64 270.76 271.41 273.21 275.71 C 275.58 279.40 274.95 283.96 274.99 288.12 C 275.01 292.05 273.00 295.72 270.13 298.31 C 274.01 300.49 276.91 304.46 277.11 309.00 C 277.32 314.18 277.89 319.77 275.44 324.55 C 273.06 329.05 267.85 331.24 262.94 331.25 C 249.39 331.29 235.83 331.24 222.28 331.27 C 222.27 329.34 222.26 327.41 222.25 325.49 C 224.16 325.52 226.08 325.53 228.00 325.54 C 228.00 308.78 228.01 292.02 227.99 275.26 C 226.09 275.26 224.18 275.26 222.27 275.27 C 222.27 273.34 222.26 271.42 222.25 269.49 M 235.46 275.27 C 235.48 282.26 235.45 289.26 235.48 296.27 C 242.66 296.27 249.83 296.27 257.01 296.28 C 260.39 296.34 264.25 295.30 266.10 292.23 C 267.96 289.51 267.63 286.09 267.46 282.98 C 267.03 278.54 262.72 275.45 258.44 275.37 C 250.79 275.12 243.12 275.34 235.46 275.27 M 235.48 325.52 C 243.33 325.55 251.19 325.52 259.05 325.55 C 262.48 325.55 266.21 324.26 268.10 321.22 C 270.22 317.97 269.85 313.87 269.56 310.19 C 269.01 305.49 264.71 301.80 259.99 301.86 C 251.83 301.56 243.65 301.82 235.48 301.74 C 235.46 309.66 235.46 317.59 235.48 325.52 Z" />
<path fill="#eeeeee" opacity="1.00" d=" M 363.25 269.49 C 376.55 269.61 389.85 269.45 403.14 269.58 C 408.16 269.50 413.82 270.84 416.82 275.22 C 419.53 278.87 419.55 283.62 419.47 287.96 C 419.35 298.25 419.69 308.55 419.31 318.83 C 418.93 325.73 412.63 331.16 405.85 331.20 C 391.66 331.36 377.47 331.20 363.29 331.28 C 363.27 329.34 363.26 327.42 363.25 325.49 C 365.16 325.52 367.08 325.53 369.00 325.54 C 369.00 308.78 369.01 292.02 368.99 275.26 C 367.08 275.26 365.17 275.26 363.27 275.27 C 363.27 273.34 363.26 271.42 363.25 269.49 M 376.46 275.27 C 376.48 292.02 376.45 308.77 376.48 325.52 C 385.17 325.51 393.88 325.60 402.57 325.49 C 407.43 325.25 411.70 321.19 411.85 316.28 C 412.20 307.85 411.89 299.40 412.00 290.96 C 411.96 287.19 412.41 283.06 410.28 279.73 C 408.34 276.62 404.55 275.29 401.04 275.29 C 392.84 275.23 384.65 275.28 376.46 275.27 Z" />
<path fill="#eeeeee" opacity="1.00" d=" M 458.25 269.49 C 475.17 269.58 492.08 269.51 509.00 269.53 C 509.00 272.93 509.00 276.33 508.99 279.74 C 506.57 279.73 504.14 279.73 501.73 279.72 C 501.73 278.24 501.73 276.76 501.74 275.28 C 491.65 275.25 481.55 275.27 471.46 275.27 C 471.48 282.35 471.45 289.44 471.48 296.52 C 480.07 296.54 488.67 296.54 497.27 296.52 C 497.26 294.68 497.26 292.84 497.26 291.01 C 499.59 291.00 501.93 291.00 504.26 291.00 C 504.27 296.57 504.26 302.15 504.27 307.72 C 501.93 307.73 499.60 307.73 497.27 307.73 C 497.26 305.90 497.26 304.08 497.27 302.27 C 488.66 302.26 480.06 302.26 471.46 302.27 C 471.48 310.02 471.45 317.77 471.48 325.52 C 481.65 325.55 491.82 325.52 501.99 325.54 C 501.99 324.11 501.99 322.69 502.00 321.27 C 504.42 321.26 506.84 321.26 509.27 321.27 C 509.26 324.60 509.26 327.93 509.26 331.26 C 492.27 331.28 475.27 331.25 458.28 331.27 C 458.27 329.34 458.26 327.42 458.25 325.49 C 460.16 325.52 462.08 325.53 464.00 325.54 C 464.00 308.78 464.01 292.02 463.99 275.26 C 462.08 275.26 460.17 275.26 458.27 275.27 C 458.27 273.34 458.26 271.42 458.25 269.49 Z" />
<path fill="#eeeeee" opacity="1.00" d=" M 540.73 269.53 C 547.15 269.53 553.57 269.53 560.00 269.53 C 559.99 271.44 559.99 273.35 560.00 275.26 C 558.25 275.26 556.50 275.26 554.76 275.27 C 561.20 290.58 567.67 305.88 574.10 321.19 C 580.42 305.85 586.88 290.57 593.18 275.23 C 591.54 275.24 589.90 275.26 588.28 275.28 C 588.27 273.35 588.26 271.42 588.25 269.50 C 594.59 269.58 600.93 269.51 607.27 269.53 C 607.26 271.44 607.26 273.35 607.26 275.26 C 605.40 275.26 603.54 275.27 601.69 275.28 C 593.75 293.94 585.76 312.58 577.80 331.24 C 575.24 331.26 572.68 331.27 570.13 331.27 C 562.26 312.61 554.21 294.01 546.40 275.33 C 544.51 275.27 542.62 275.25 540.74 275.25 C 540.73 273.34 540.73 271.44 540.73 269.53 Z" />
<path fill="#eeeeee" opacity="1.00" d=" M 638.25 269.49 C 655.17 269.58 672.08 269.51 689.00 269.53 C 689.00 272.93 689.00 276.33 688.99 279.74 C 686.56 279.73 684.14 279.73 681.73 279.72 C 681.72 278.24 681.73 276.76 681.74 275.28 C 671.65 275.25 661.55 275.27 651.46 275.27 C 651.48 282.35 651.45 289.44 651.48 296.52 C 660.07 296.54 668.67 296.54 677.27 296.52 C 677.25 294.68 677.26 292.84 677.27 291.01 C 679.59 291.00 681.92 291.00 684.26 291.00 C 684.26 296.58 684.26 302.15 684.26 307.73 C 681.93 307.73 679.60 307.73 677.27 307.73 C 677.26 305.90 677.26 304.08 677.27 302.26 C 668.66 302.27 660.06 302.26 651.46 302.27 C 651.48 310.02 651.45 317.77 651.48 325.52 C 661.65 325.55 671.82 325.52 681.99 325.54 C 681.99 324.11 681.99 322.69 682.00 321.27 C 684.42 321.26 686.84 321.26 689.27 321.27 C 689.26 324.60 689.26 327.93 689.26 331.26 C 672.26 331.27 655.27 331.26 638.27 331.26 C 638.26 329.34 638.26 327.41 638.25 325.49 C 640.16 325.52 642.08 325.53 644.00 325.54 C 644.00 308.78 644.01 292.02 643.99 275.26 C 642.08 275.26 640.17 275.26 638.27 275.27 C 638.26 273.34 638.25 271.42 638.25 269.49 Z" />
<path fill="#eeeeee" opacity="1.00" d=" M 726.25 269.49 C 732.59 269.58 738.93 269.51 745.27 269.53 C 745.26 271.44 745.25 273.35 745.26 275.26 C 743.32 275.26 741.39 275.26 739.46 275.27 C 739.48 292.02 739.45 308.77 739.48 325.52 C 748.98 325.55 758.48 325.52 767.99 325.54 C 767.98 324.11 767.99 322.68 768.01 321.26 C 770.33 321.27 772.66 321.27 774.99 321.26 C 775.00 324.60 775.00 327.93 775.00 331.26 C 758.75 331.27 742.51 331.27 726.27 331.26 C 726.26 329.34 726.26 327.41 726.25 325.49 C 728.16 325.52 730.07 325.53 732.00 325.54 C 732.00 308.78 732.01 292.02 731.99 275.26 C 730.08 275.26 728.17 275.26 726.27 275.27 C 726.26 273.34 726.25 271.42 726.25 269.49 Z" />
<path fill="#eeeeee" opacity="1.00" d=" M 904.25 269.49 C 917.49 269.65 930.72 269.37 943.96 269.64 C 949.90 269.50 956.22 272.91 957.91 278.89 C 959.18 283.93 958.77 289.22 958.54 294.36 C 958.16 301.01 952.26 306.46 945.68 306.69 C 936.28 306.80 926.88 306.69 917.48 306.74 C 917.46 313.00 917.45 319.26 917.48 325.53 C 919.40 325.53 921.34 325.53 923.27 325.54 C 923.25 327.44 923.25 329.35 923.26 331.26 C 916.93 331.27 910.60 331.26 904.27 331.27 C 904.26 329.34 904.26 327.41 904.25 325.49 C 906.16 325.52 908.07 325.53 910.00 325.54 C 910.00 308.78 910.01 292.02 909.99 275.26 C 908.08 275.26 906.16 275.26 904.27 275.27 C 904.26 273.34 904.25 271.42 904.25 269.49 M 917.46 275.27 C 917.47 283.84 917.47 292.41 917.46 300.99 C 925.35 301.01 933.24 300.99 941.14 301.01 C 944.48 301.11 947.77 299.36 949.58 296.56 C 951.78 292.73 951.44 288.04 951.01 283.81 C 950.55 279.01 946.09 275.45 941.40 275.35 C 933.42 275.14 925.44 275.33 917.46 275.27 Z" />
<path fill="#eeeeee" opacity="1.00" d=" M 994.25 269.50 C 1011.17 269.58 1028.08 269.51 1045.00 269.53 C 1044.99 272.93 1045.00 276.33 1044.99 279.74 C 1042.56 279.73 1040.14 279.73 1037.73 279.73 C 1037.72 278.24 1037.72 276.76 1037.74 275.28 C 1027.65 275.24 1017.55 275.27 1007.46 275.27 C 1007.48 282.35 1007.45 289.44 1007.48 296.52 C 1016.07 296.54 1024.67 296.54 1033.27 296.52 C 1033.25 294.68 1033.26 292.84 1033.27 291.01 C 1035.59 291.00 1037.92 291.00 1040.26 291.00 C 1040.26 296.58 1040.26 302.16 1040.26 307.73 C 1037.92 307.73 1035.59 307.73 1033.27 307.73 C 1033.26 305.91 1033.25 304.09 1033.27 302.28 C 1024.67 302.25 1016.06 302.27 1007.46 302.27 C 1007.48 310.02 1007.45 317.77 1007.48 325.52 C 1017.64 325.55 1027.81 325.52 1037.99 325.54 C 1037.98 324.11 1037.98 322.69 1038.00 321.27 C 1040.42 321.26 1042.84 321.26 1045.27 321.27 C 1045.26 324.60 1045.26 327.93 1045.26 331.26 C 1028.26 331.27 1011.26 331.26 994.27 331.26 C 994.25 329.34 994.26 327.41 994.25 325.49 C 996.16 325.52 998.07 325.53 1000.00 325.54 C 1000.00 308.78 1000.01 292.02 999.99 275.26 C 998.08 275.26 996.16 275.26 994.27 275.27 C 994.26 273.34 994.25 271.42 994.25 269.50 Z" />
<path fill="#eeeeee" opacity="1.00" d=" M 1081.25 269.50 C 1095.16 269.63 1109.08 269.41 1122.99 269.61 C 1128.71 269.53 1134.88 272.43 1136.89 278.10 C 1138.61 283.23 1138.05 288.83 1137.71 294.13 C 1137.07 300.54 1131.20 305.25 1124.98 305.72 C 1128.89 312.24 1132.44 318.96 1136.20 325.56 C 1138.21 325.53 1140.23 325.53 1142.27 325.53 C 1142.25 327.44 1142.25 329.35 1142.26 331.26 C 1135.75 331.27 1129.24 331.27 1122.74 331.26 C 1122.72 329.35 1122.72 327.44 1122.73 325.54 C 1124.23 325.53 1125.75 325.53 1127.27 325.52 C 1123.70 318.89 1120.11 312.27 1116.42 305.71 C 1109.10 305.76 1101.79 305.71 1094.48 305.74 C 1094.46 312.33 1094.45 318.93 1094.48 325.53 C 1096.39 325.53 1098.33 325.53 1100.27 325.54 C 1100.25 327.44 1100.25 329.35 1100.26 331.26 C 1093.93 331.27 1087.60 331.25 1081.28 331.27 C 1081.26 329.34 1081.25 327.42 1081.25 325.49 C 1083.16 325.52 1085.07 325.53 1087.00 325.54 C 1087.00 308.78 1087.01 292.02 1086.99 275.26 C 1085.08 275.26 1083.16 275.26 1081.27 275.27 C 1081.26 273.34 1081.25 271.42 1081.25 269.50 M 1094.46 275.27 C 1094.47 283.51 1094.47 291.75 1094.46 299.99 C 1103.02 300.01 1111.58 300.00 1120.15 300.00 C 1124.16 300.13 1128.30 297.77 1129.67 293.88 C 1130.93 290.18 1130.84 286.04 1129.93 282.27 C 1128.80 277.88 1124.25 275.26 1119.91 275.30 C 1111.42 275.21 1102.94 275.30 1094.46 275.27 Z" />
</g>
</svg>
