<?xml version="1.0" encoding="UTF-8" ?>
<!DOCTYPE svg PUBLIC "-//W3C//DTD SVG 1.1//EN" "http://www.w3.org/Graphics/SVG/1.1/DTD/svg11.dtd">
<svg width="500pt" height="121pt" viewBox="0 0 500 121" version="1.1" xmlns="http://www.w3.org/2000/svg">
<g id="#eeeeeeff">
<path fill="#eeeeee" opacity="1.00" d=" M 84.75 0.00 L 85.50 0.00 C 82.61 8.33 79.80 16.68 76.96 25.02 C 69.57 22.48 62.38 19.42 54.99 16.90 C 64.53 10.63 75.01 5.95 84.75 0.00 Z" />
<path fill="#eeeeee" opacity="1.00" d=" M 24.87 0.01 C 34.71 4.77 44.01 10.61 53.83 15.44 C 54.87 15.82 55.15 17.05 53.90 17.35 C 47.08 19.94 40.26 22.56 33.39 25.03 C 30.60 16.67 27.68 8.36 24.87 0.01 Z" />
<path fill="#eeeeee" opacity="1.00" d=" M 250.53 8.75 C 257.65 7.47 265.73 7.64 271.73 12.21 C 276.69 15.80 279.26 21.97 279.29 28.00 C 279.28 33.01 278.11 37.93 277.48 42.88 C 276.16 51.05 275.74 59.84 270.81 66.84 C 263.76 77.31 249.11 80.84 237.55 76.60 C 230.07 73.79 225.39 65.86 225.76 57.99 C 226.17 50.64 227.78 43.42 228.69 36.12 C 229.48 29.76 231.17 23.28 235.20 18.16 C 238.96 13.31 244.55 10.02 250.53 8.75 M 252.17 19.07 C 246.58 20.72 243.51 26.43 242.60 31.84 C 241.41 39.17 240.31 46.52 239.29 53.88 C 238.88 58.13 238.56 63.61 242.56 66.34 C 247.85 69.43 255.44 67.94 258.99 62.86 C 263.14 57.06 262.99 49.63 264.26 42.89 C 264.97 36.59 267.03 30.06 265.20 23.78 C 263.31 18.65 256.83 17.63 252.17 19.07 Z" />
<path fill="#eeeeee" opacity="1.00" d=" M 129.18 9.12 C 137.46 9.11 145.74 9.05 154.01 9.14 C 161.29 9.15 168.46 13.91 170.57 21.00 C 173.65 32.21 168.05 45.71 157.12 50.37 C 150.46 53.43 142.99 52.42 135.90 52.61 C 134.73 60.86 133.43 69.10 132.22 77.34 C 127.81 77.32 123.40 77.34 119.00 77.33 C 122.30 54.58 125.81 31.86 129.18 9.12 M 140.92 19.40 C 139.74 27.01 138.65 34.63 137.46 42.24 C 141.29 42.14 145.13 42.47 148.94 42.05 C 154.46 41.00 157.53 35.21 158.02 30.03 C 158.63 26.22 157.56 21.17 153.45 19.80 C 149.33 19.00 145.09 19.57 140.92 19.40 Z" />
<path fill="#eeeeee" opacity="1.00" d=" M 186.54 9.11 C 190.95 9.06 195.36 9.21 199.77 8.93 C 197.10 28.34 193.89 47.67 191.20 67.07 C 199.67 66.73 208.15 67.00 216.63 66.91 C 216.15 70.38 215.57 73.85 215.11 77.33 C 202.17 77.35 189.24 77.32 176.31 77.34 C 179.75 54.60 183.16 31.86 186.54 9.11 Z" />
<path fill="#eeeeee" opacity="1.00" d=" M 289.17 19.41 C 289.68 15.96 290.23 12.51 290.73 9.06 C 305.72 9.07 320.71 9.24 335.69 8.97 C 335.26 12.46 334.67 15.93 334.19 19.41 C 328.85 19.40 323.51 19.42 318.17 19.39 C 315.16 38.69 312.39 58.04 309.40 77.35 C 304.98 77.31 300.56 77.33 296.14 77.33 C 299.01 58.02 301.93 38.71 304.82 19.40 C 299.60 19.41 294.38 19.41 289.17 19.41 Z" />
<path fill="#eeeeee" opacity="1.00" d=" M 345.84 9.09 C 350.27 9.10 354.70 9.12 359.14 9.07 C 364.22 23.69 369.31 38.31 374.38 52.93 C 376.81 38.38 378.87 23.75 380.99 9.14 C 385.44 9.04 389.90 9.20 394.35 8.98 C 390.94 31.76 387.49 54.53 384.12 77.31 C 379.69 77.32 375.26 77.31 370.84 77.32 C 365.80 62.78 360.69 48.26 355.69 33.70 C 352.95 48.13 351.16 62.76 348.97 77.30 C 344.51 77.36 340.05 77.32 335.59 77.33 C 339.06 54.59 342.45 31.84 345.84 9.09 Z" />
<path fill="#eeeeee" opacity="1.00" d=" M 409.46 9.06 C 413.84 9.10 418.23 9.20 422.62 8.94 C 419.28 31.75 415.82 54.54 412.39 77.33 C 407.99 77.30 403.59 77.32 399.19 77.32 C 402.63 54.57 405.98 31.81 409.46 9.06 Z" />
<path fill="#eeeeee" opacity="1.00" d=" M 427.49 77.33 C 430.98 54.58 434.28 31.80 437.78 9.05 C 442.16 9.11 446.55 9.19 450.94 8.96 C 449.91 18.39 448.00 27.69 446.96 37.11 C 447.80 37.13 449.49 37.15 450.33 37.16 C 455.60 27.84 460.69 18.42 465.91 9.07 C 471.67 9.14 477.43 9.07 483.19 9.11 C 475.50 20.37 467.84 31.65 460.16 42.91 C 464.72 54.37 469.17 65.87 473.73 77.32 C 468.66 77.32 463.59 77.29 458.52 77.35 C 455.07 67.87 451.93 58.28 448.46 48.80 C 447.59 48.82 445.86 48.86 444.99 48.88 C 443.70 58.38 442.24 67.86 440.79 77.33 C 436.35 77.31 431.92 77.31 427.49 77.33 Z" />
<path fill="#eeeeee" opacity="1.00" d=" M 128.60 91.58 C 129.03 91.58 129.88 91.59 130.31 91.59 C 131.11 97.53 131.74 103.50 132.49 109.44 C 135.31 103.52 137.92 97.50 140.74 91.58 C 141.14 91.58 141.94 91.59 142.34 91.59 C 143.31 97.46 144.18 103.34 145.12 109.22 C 147.94 103.45 150.14 97.40 152.73 91.53 C 153.17 91.56 154.06 91.61 154.50 91.64 C 151.51 98.65 148.71 105.74 145.60 112.69 C 145.23 112.75 144.50 112.86 144.13 112.92 C 143.03 108.64 142.44 104.11 142.21 99.68 C 142.39 97.95 142.27 96.07 141.02 94.73 C 140.80 95.15 140.37 95.97 140.15 96.38 C 137.90 101.95 135.39 107.43 132.80 112.84 C 132.41 112.84 131.62 112.82 131.22 112.81 C 130.16 105.77 129.49 98.66 128.60 91.58 Z" />
<path fill="#eeeeee" opacity="1.00" d=" M 167.53 91.59 C 172.02 91.61 176.51 91.49 181.00 91.66 C 180.74 91.93 180.22 92.48 179.95 92.75 C 176.30 92.98 172.63 92.76 168.97 92.84 C 168.56 95.63 168.15 98.41 167.73 101.20 C 171.25 101.23 174.77 101.05 178.28 101.41 C 175.42 103.81 171.00 101.85 167.54 102.44 C 167.09 105.52 166.60 108.60 166.15 111.69 C 170.09 111.72 174.04 111.59 177.99 111.77 C 177.74 112.04 177.23 112.56 176.98 112.83 C 172.78 113.03 168.56 112.84 164.35 112.88 C 165.34 105.77 166.43 98.68 167.53 91.59 Z" />
<path fill="#eeeeee" opacity="1.00" d=" M 193.80 91.60 C 197.51 91.82 201.75 90.70 204.98 93.04 C 207.54 95.60 205.90 99.70 203.54 101.78 C 207.37 104.63 206.05 111.11 201.55 112.45 C 197.99 113.37 194.23 112.74 190.59 112.83 C 191.68 105.76 192.71 98.68 193.80 91.60 M 195.30 92.82 C 194.84 95.65 194.40 98.49 194.00 101.34 C 196.81 101.20 199.91 101.87 202.47 100.38 C 204.65 99.02 205.67 95.11 203.10 93.60 C 200.67 92.45 197.89 92.92 195.30 92.82 M 192.43 111.71 C 195.63 111.47 199.30 112.42 202.09 110.39 C 204.25 108.87 205.26 105.01 202.62 103.44 C 199.94 102.01 196.70 102.88 193.80 102.64 C 193.34 105.66 192.89 108.69 192.43 111.71 Z" />
<path fill="#eeeeee" opacity="1.00" d=" M 238.93 91.66 C 243.04 91.82 248.09 90.41 251.28 93.82 C 254.06 96.50 253.53 100.71 252.84 104.14 C 252.20 108.50 248.57 112.36 244.13 112.84 C 241.35 113.00 238.56 112.87 235.78 112.83 C 236.84 105.78 237.93 98.72 238.93 91.66 M 240.48 92.83 C 239.52 99.10 238.61 105.39 237.62 111.66 C 240.36 111.58 243.31 112.16 245.85 110.83 C 251.05 108.30 252.92 101.27 251.03 96.13 C 249.00 92.22 244.16 92.75 240.48 92.83 Z" />
<path fill="#eeeeee" opacity="1.00" d=" M 268.79 91.61 C 272.99 91.65 277.21 91.40 281.41 91.68 C 281.64 91.93 282.12 92.42 282.35 92.67 C 278.34 92.97 274.31 92.79 270.29 92.84 C 269.84 95.62 269.41 98.40 269.03 101.20 C 272.52 101.22 276.01 101.09 279.49 101.35 C 278.92 102.22 278.13 102.59 277.11 102.48 C 274.35 102.52 271.58 102.46 268.82 102.45 C 268.36 105.54 267.90 108.62 267.43 111.71 C 271.06 111.79 274.74 111.44 278.35 111.83 C 278.62 112.04 279.15 112.46 279.41 112.67 C 274.83 113.11 270.23 112.81 265.65 112.90 C 266.60 105.79 267.74 98.70 268.79 91.61 Z" />
<path fill="#eeeeee" opacity="1.00" d=" M 292.59 91.61 C 293.03 91.59 293.89 91.56 294.32 91.55 C 295.80 97.82 297.09 104.14 298.57 110.41 C 301.65 104.80 304.47 99.04 307.50 93.40 C 307.97 92.36 308.85 91.61 309.75 90.95 C 309.81 92.12 309.55 93.20 308.97 94.20 C 306.14 99.60 303.29 105.00 300.48 110.41 C 299.85 111.67 298.99 112.79 297.85 113.63 C 295.56 106.43 294.40 98.93 292.59 91.61 Z" />
<path fill="#eeeeee" opacity="1.00" d=" M 322.93 91.63 C 327.23 91.53 331.53 91.61 335.83 91.54 C 335.87 91.86 335.95 92.51 335.99 92.83 C 332.14 92.84 328.29 92.82 324.44 92.84 C 324.03 95.63 323.58 98.41 323.16 101.20 C 326.66 101.22 330.17 101.10 333.67 101.34 C 330.86 103.81 326.44 101.87 322.98 102.47 C 322.52 105.53 322.09 108.59 321.58 111.65 C 325.37 111.71 329.15 111.68 332.94 111.68 L 332.94 112.88 C 328.56 112.91 324.17 112.91 319.79 112.86 C 320.79 105.78 321.92 98.71 322.93 91.63 Z" />
<path fill="#eeeeee" opacity="1.00" d=" M 349.25 92.17 C 349.08 90.55 351.55 91.68 350.69 92.85 C 349.89 99.14 348.75 105.39 347.94 111.68 C 351.72 112.37 356.43 110.32 359.66 112.73 C 355.14 113.04 350.61 112.87 346.09 112.85 C 347.12 105.96 347.97 99.02 349.25 92.17 Z" />
<path fill="#eeeeee" opacity="1.00" d=" M 379.49 91.57 C 382.87 90.59 387.29 91.48 388.69 95.08 C 390.12 98.95 388.94 103.26 387.94 107.10 C 386.33 112.65 378.79 115.29 374.21 111.74 C 370.93 108.79 371.95 103.97 372.64 100.15 C 373.18 96.36 375.55 92.49 379.49 91.57 M 379.20 93.24 C 374.74 95.32 374.02 100.72 373.62 105.07 C 373.13 107.94 374.67 111.43 377.83 111.85 C 381.94 112.73 385.78 109.41 386.67 105.53 C 387.30 102.44 388.25 99.17 387.37 96.05 C 386.38 92.70 382.05 91.75 379.20 93.24 Z" />
<path fill="#eeeeee" opacity="1.00" d=" M 404.41 91.59 C 407.86 91.77 411.49 91.05 414.83 92.18 C 418.87 93.90 418.27 99.81 415.33 102.28 C 412.21 104.84 407.92 103.67 404.24 103.89 C 403.66 106.77 403.47 109.72 402.80 112.58 C 402.41 112.73 401.63 113.03 401.23 113.17 C 402.10 105.95 403.29 98.78 404.41 91.59 M 405.84 92.84 C 405.35 96.15 404.85 99.45 404.35 102.76 C 407.60 102.52 411.50 103.51 414.15 101.05 C 416.42 99.20 416.89 94.63 413.82 93.34 C 411.25 92.48 408.49 92.93 405.84 92.84 Z" />
<path fill="#eeeeee" opacity="1.00" d=" M 432.31 91.59 C 436.71 91.59 441.11 91.57 445.51 91.59 C 445.42 91.92 445.22 92.56 445.13 92.88 C 441.32 92.81 437.52 92.83 433.72 92.85 C 433.31 95.64 432.90 98.42 432.46 101.21 C 435.61 101.24 438.78 101.06 441.93 101.27 C 442.17 101.54 442.66 102.07 442.90 102.34 C 439.37 102.57 435.82 102.44 432.29 102.46 C 431.81 105.52 431.35 108.59 430.93 111.66 C 434.71 111.70 438.49 111.69 442.27 111.67 L 442.30 112.91 C 437.90 112.87 433.51 112.93 429.11 112.85 C 430.10 105.75 431.14 98.66 432.31 91.59 Z" />
<path fill="#eeeeee" opacity="1.00" d=" M 458.78 91.62 C 462.82 91.92 467.45 90.56 471.03 92.96 C 474.21 95.74 472.05 100.74 468.84 102.55 C 472.68 104.92 469.70 109.57 471.22 113.00 C 470.70 112.93 469.67 112.80 469.16 112.74 C 468.41 109.78 470.88 105.42 467.48 103.66 C 464.65 102.77 461.61 103.35 458.70 103.17 C 458.21 106.36 457.85 109.57 457.23 112.74 C 456.84 112.77 456.05 112.82 455.65 112.85 C 456.56 105.76 457.77 98.70 458.78 91.62 M 460.30 92.83 C 459.80 95.85 459.32 98.86 458.95 101.89 C 462.53 101.68 467.08 102.86 469.70 99.67 C 471.43 97.91 471.44 94.19 468.77 93.34 C 466.03 92.49 463.11 92.93 460.30 92.83 Z" />
</g>
<g id="#222222ff">
<path fill="#222222" opacity="1.00" d=" M 1.83 6.67 C 9.00 4.33 16.31 2.44 23.45 0.02 C 29.23 27.21 34.45 54.52 40.30 81.70 C 44.45 94.81 48.41 108.01 52.92 121.00 L 52.78 121.00 C 37.24 95.46 22.27 69.57 6.91 43.92 C 8.42 39.22 10.07 34.57 11.68 29.89 C 7.78 29.05 3.89 28.18 0.00 27.32 L 0.00 26.30 C 0.71 19.77 1.47 13.23 1.83 6.67 Z" />
<path fill="#222222" opacity="1.00" d=" M 85.95 0.15 C 93.22 2.16 100.41 4.47 107.66 6.53 C 108.40 13.46 108.80 20.41 109.55 27.34 C 105.71 28.20 101.87 29.04 98.02 29.84 C 99.48 34.58 101.18 39.23 102.73 43.93 C 87.53 69.57 72.60 95.37 57.39 121.00 L 57.24 121.00 C 61.01 109.41 64.37 97.69 68.06 86.08 C 69.15 82.75 69.94 79.35 70.61 75.92 C 75.67 50.65 81.09 25.45 85.95 0.15 Z" />
<path fill="#222222" opacity="1.00" d=" M 140.15 96.38 C 140.37 95.97 140.80 95.15 141.02 94.73 C 142.27 96.07 142.39 97.95 142.21 99.68 C 140.73 99.78 140.18 97.57 140.15 96.38 Z" />
</g>
<g id="#ff6448ff">
<path fill="#ff6448" opacity="1.00" d=" M 42.02 24.27 C 46.37 22.49 50.76 20.79 55.11 19.00 C 59.42 20.74 63.71 22.56 68.06 24.22 C 66.89 27.06 65.69 29.88 64.62 32.76 C 58.42 34.80 51.66 34.54 45.42 32.85 C 44.34 29.97 43.14 27.13 42.02 24.27 Z" />
<path fill="#ff6448" opacity="1.00" d=" M 45.46 34.70 C 51.76 35.92 58.19 35.94 64.48 34.69 C 65.59 48.50 66.54 62.33 67.67 76.14 C 67.81 78.27 68.01 80.47 67.40 82.56 C 63.46 95.39 59.19 108.12 55.40 121.00 L 54.68 121.00 C 50.80 108.60 46.82 96.24 42.89 83.86 C 42.11 81.69 42.14 79.38 42.32 77.12 C 43.35 62.98 44.46 48.84 45.46 34.70 Z" />
</g>
</svg>
