<?xml version="1.0" encoding="UTF-8" ?>
<!DOCTYPE svg PUBLIC "-//W3C//DTD SVG 1.1//EN" "http://www.w3.org/Graphics/SVG/1.1/DTD/svg11.dtd">
<svg width="400pt" height="400pt" viewBox="0 0 400 400" version="1.1" xmlns="http://www.w3.org/2000/svg">
<g id="#ff6549ff">
<path fill="#ff6549" opacity="1.00" d=" M 278.28 0.00 L 280.59 0.00 C 284.09 2.62 288.62 5.25 289.37 9.95 C 287.24 13.51 283.89 16.09 281.12 19.12 C 269.65 31.31 258.04 43.38 246.54 55.54 C 244.33 57.78 243.57 60.92 242.89 63.88 C 240.98 72.34 238.66 80.70 236.61 89.12 C 239.37 89.80 242.22 90.07 245.06 90.22 C 257.03 90.94 268.99 92.42 280.61 95.46 C 283.86 96.47 287.47 97.52 289.66 100.31 C 290.17 102.12 288.25 103.15 287.01 104.00 C 283.26 106.09 279.01 107.00 274.86 107.91 C 243.62 113.81 211.69 113.72 180.02 113.31 C 166.60 112.72 153.15 112.34 139.85 110.31 C 131.17 109.13 122.32 108.17 114.15 104.82 C 112.35 103.96 109.63 102.70 110.15 100.26 C 111.92 97.71 115.07 96.76 117.88 95.85 C 126.17 93.52 134.70 92.17 143.26 91.28 C 166.40 88.57 189.73 88.01 213.01 88.50 C 215.83 88.59 218.65 88.44 221.44 87.98 C 223.27 78.02 226.15 68.29 228.43 58.42 C 229.09 55.81 229.53 53.10 230.74 50.67 C 232.37 48.07 234.78 46.08 236.86 43.86 C 250.66 29.23 264.45 14.60 278.28 0.00 Z" />
<path fill="#ff6549" opacity="1.00" d=" M 248.35 116.33 C 261.70 114.71 275.51 113.88 287.94 108.29 C 284.12 143.84 280.16 179.39 276.05 214.92 C 275.78 217.76 273.24 219.52 271.31 221.31 C 266.29 225.36 260.55 229.07 254.00 229.84 C 255.65 226.39 258.90 224.18 261.40 221.40 C 265.14 217.36 269.03 213.02 270.53 207.59 C 271.48 204.11 270.03 199.23 265.98 198.64 C 259.23 197.67 253.46 202.16 248.35 205.92 C 248.04 203.89 248.28 200.87 245.70 200.34 C 242.21 199.77 241.65 204.25 240.64 206.62 C 238.92 213.05 235.91 219.36 230.52 223.51 C 226.92 226.52 222.31 227.89 217.81 228.93 C 217.27 224.81 218.71 220.84 220.05 217.02 C 224.41 205.04 229.77 193.46 234.73 181.72 C 236.51 177.46 237.95 172.45 235.80 168.05 C 234.23 168.00 232.48 168.08 231.60 169.63 C 227.64 175.16 225.58 181.75 223.02 187.99 C 218.93 199.26 213.61 210.10 210.82 221.82 C 209.92 226.56 204.95 229.52 200.41 229.72 C 198.50 228.53 198.39 226.01 198.75 224.03 C 200.00 216.93 203.86 210.68 205.90 203.83 C 206.50 202.24 206.29 200.54 206.08 198.90 C 204.12 198.70 202.35 199.67 201.27 201.28 C 196.44 207.76 194.93 216.27 189.12 222.10 C 185.73 225.41 182.46 230.26 177.13 229.93 C 176.08 221.46 181.36 213.93 184.48 206.41 C 185.79 203.86 187.02 199.36 183.09 198.52 C 177.97 203.02 175.11 209.40 172.58 215.58 C 170.56 221.24 168.36 227.33 169.63 233.41 C 170.71 237.74 176.04 239.07 179.86 237.86 C 185.03 236.55 188.52 232.21 191.58 228.13 C 192.12 231.11 192.26 235.07 195.61 236.32 C 200.28 238.00 204.97 235.55 208.98 233.32 C 210.76 234.86 212.45 237.12 215.05 237.03 C 221.16 236.96 225.89 232.59 231.05 229.93 C 228.36 239.07 222.96 247.16 220.38 256.34 C 219.95 258.45 219.08 261.47 221.36 262.84 C 224.55 263.21 226.17 259.89 227.69 257.67 C 235.33 244.18 238.79 228.57 247.85 215.84 C 251.47 210.87 256.94 206.36 263.44 206.67 C 262.95 209.35 260.70 211.09 258.98 213.00 C 254.56 217.65 249.35 221.99 247.00 228.14 C 245.76 231.56 246.70 236.88 251.02 237.35 C 260.01 238.39 267.48 232.26 274.64 227.80 C 272.32 250.53 269.55 273.21 267.13 295.93 C 267.05 299.42 263.05 300.19 260.56 301.53 C 238.91 310.35 215.11 311.51 192.01 311.29 C 180.10 310.64 168.06 310.25 156.40 307.51 C 147.99 305.69 139.46 303.46 131.98 299.08 C 130.17 298.22 129.92 296.14 129.70 294.38 C 128.21 275.26 125.61 256.25 124.02 237.14 C 127.75 237.83 131.72 238.91 135.38 237.33 C 141.42 235.44 145.34 230.25 150.33 226.73 C 149.41 232.96 146.12 238.63 145.81 244.98 C 145.57 246.59 146.44 248.02 147.06 249.44 C 151.22 249.78 152.98 245.39 154.09 242.15 C 157.46 231.37 159.93 220.32 163.72 209.67 C 165.24 204.66 167.15 199.40 166.25 194.10 C 165.79 191.38 161.91 191.71 160.82 193.81 C 156.94 199.58 157.08 207.20 152.74 212.74 C 148.87 217.80 144.40 222.49 139.13 226.10 C 136.65 227.68 133.26 229.29 130.45 227.56 C 128.16 225.83 127.98 222.63 127.90 220.01 C 128.15 209.74 132.66 200.26 137.27 191.31 C 140.68 185.00 144.29 178.53 149.89 173.89 C 153.02 171.33 157.29 169.21 161.38 170.63 C 165.08 172.78 165.73 177.71 169.13 180.17 C 171.19 180.99 173.11 179.69 174.80 178.68 C 175.18 172.52 170.67 167.37 166.01 163.94 C 161.68 160.69 155.73 161.00 150.92 162.94 C 145.12 165.34 140.63 169.99 136.81 174.83 C 131.46 181.92 127.61 190.00 124.09 198.11 C 122.85 200.74 122.59 203.90 120.54 206.09 C 117.53 173.69 113.64 141.38 110.78 108.96 C 118.80 111.73 127.05 113.91 135.52 114.72 C 154.21 117.55 173.15 117.64 192.00 118.13 C 210.79 118.19 229.61 117.67 248.35 116.33 Z" />
<path fill="#ff6549" opacity="1.00" d=" M 134.94 306.34 C 151.25 311.90 168.42 314.56 185.60 315.51 C 206.58 316.47 227.80 315.33 248.27 310.41 C 252.95 309.43 257.45 307.73 262.14 306.76 C 259.68 313.29 254.52 318.52 252.46 325.16 C 250.69 346.03 250.39 366.99 248.54 387.85 C 248.06 391.40 244.14 392.91 241.28 394.25 C 230.30 398.10 218.57 399.43 206.98 399.52 C 190.51 399.69 173.54 399.94 157.87 394.12 C 154.75 392.81 150.49 390.91 150.48 386.96 C 149.84 367.91 147.70 348.96 146.86 329.93 C 146.91 326.73 145.60 323.81 143.81 321.24 C 140.79 316.31 137.72 311.41 134.94 306.34 Z" />
</g>
</svg>
