<?xml version="1.0" encoding="UTF-8" ?>
<!DOCTYPE svg PUBLIC "-//W3C//DTD SVG 1.1//EN" "http://www.w3.org/Graphics/SVG/1.1/DTD/svg11.dtd">
<svg width="300pt" height="300pt" viewBox="0 0 300 300" version="1.1" xmlns="http://www.w3.org/2000/svg">
<g id="#ffffffff">
</g>
<g id="#0868abff">
<path fill="#0868ab" opacity="1.00" d=" M 160.43 34.59 C 156.91 23.03 160.16 10.14 167.70 0.89 C 166.83 8.90 166.42 17.19 169.01 24.95 C 172.83 37.90 182.88 48.06 194.29 54.78 C 204.23 60.80 216.25 63.63 227.79 61.68 C 233.14 60.83 238.15 58.68 243.23 56.91 C 238.05 65.25 229.13 71.04 219.41 72.38 C 205.06 74.43 189.58 71.04 178.23 61.78 C 169.85 54.71 163.63 45.06 160.43 34.59 Z" />
<path fill="#0868ab" opacity="1.00" d=" M 108.52 44.26 C 109.74 32.51 115.15 21.35 123.08 12.67 C 122.50 19.09 121.29 25.47 121.27 31.95 C 121.00 47.12 125.01 62.62 133.93 75.03 C 143.36 88.50 157.26 98.15 171.95 105.14 C 191.67 114.62 216.04 115.11 235.37 104.38 C 241.77 101.22 246.90 96.22 252.32 91.70 C 247.69 104.06 237.99 114.14 226.55 120.48 C 206.71 131.20 182.22 132.77 161.12 124.91 C 144.74 118.95 130.99 107.10 120.95 93.03 C 110.93 79.04 106.74 61.30 108.52 44.26 Z" />
<path fill="#0868ab" opacity="1.00" d=" M 54.24 53.28 C 58.09 44.89 63.06 36.73 70.11 30.64 C 68.95 39.42 66.97 48.12 66.94 57.02 C 66.11 76.50 70.64 96.35 81.05 112.95 C 94.41 134.49 115.63 149.95 138.16 160.84 C 167.61 173.51 203.41 172.84 231.19 156.20 C 236.74 152.99 241.41 148.56 246.47 144.68 C 243.67 151.61 239.13 157.65 234.27 163.24 C 219.42 179.79 198.55 190.85 176.45 193.50 C 156.04 195.84 134.81 193.60 115.98 185.08 C 85.34 171.27 60.79 143.86 51.61 111.40 C 46.31 92.45 46.10 71.48 54.24 53.28 Z" />
</g>
<g id="#131b28ff">
<path fill="#131b28" opacity="1.00" d=" M 57.63 227.63 C 66.55 218.74 81.18 216.20 92.61 221.44 C 100.70 225.07 105.48 234.27 104.46 242.99 C 103.50 251.65 100.03 259.75 97.24 267.93 C 99.33 268.23 101.42 268.53 103.51 268.85 C 102.80 272.60 101.95 276.32 101.01 280.02 C 88.32 280.25 75.61 280.64 62.93 280.00 C 57.61 279.81 52.09 277.51 49.19 272.86 C 45.37 267.37 45.57 260.36 46.02 253.98 C 47.01 244.30 50.89 234.75 57.63 227.63 M 66.79 236.79 C 64.60 239.98 63.52 243.76 62.47 247.45 C 61.37 251.86 60.26 256.42 60.69 261.01 C 60.95 264.80 64.66 267.24 68.12 267.80 C 73.33 268.58 78.61 268.10 83.85 268.06 C 85.85 260.33 88.39 252.74 89.99 244.91 C 90.95 240.86 89.80 236.14 86.27 233.67 C 80.34 229.51 71.08 230.87 66.79 236.79 Z" />
<path fill="#131b28" opacity="1.00" d=" M 278.42 225.25 C 283.65 225.04 288.89 225.01 294.13 225.11 C 283.34 244.06 265.13 258.48 258.53 279.82 C 253.82 280.05 249.11 280.06 244.39 280.02 C 245.96 276.23 247.32 272.18 246.80 268.02 C 245.99 260.90 242.81 254.32 241.70 247.25 C 246.33 247.14 250.96 247.16 255.59 247.29 C 256.37 249.70 257.18 252.11 258.07 254.50 C 265.22 245.02 271.72 235.06 278.42 225.25 Z" />
<path fill="#131b28" opacity="1.00" d=" M 172.93 233.89 C 179.68 230.80 187.64 229.91 194.76 232.25 C 198.89 233.59 202.77 236.77 203.73 241.18 C 205.08 247.75 203.16 254.36 201.90 260.79 C 191.49 260.85 181.08 260.75 170.67 260.83 C 170.60 262.38 170.42 263.93 170.53 265.48 C 171.39 267.78 174.08 268.23 176.21 268.50 C 183.90 269.26 191.65 268.82 199.37 269.05 C 198.66 272.73 197.83 276.39 197.00 280.05 C 187.99 280.39 178.96 280.59 169.96 280.11 C 166.04 279.98 161.92 278.81 159.33 275.70 C 156.29 272.25 156.63 267.31 157.10 263.07 C 158.12 256.10 159.66 249.08 162.83 242.74 C 164.89 238.60 168.85 235.81 172.93 233.89 M 178.57 243.46 C 175.66 244.70 174.22 247.70 172.67 250.24 C 178.81 250.63 184.97 250.65 191.10 250.12 C 190.49 248.13 190.70 245.51 188.76 244.22 C 185.79 242.32 181.80 242.11 178.57 243.46 Z" />
<path fill="#131b28" opacity="1.00" d=" M 30.55 232.36 C 35.05 232.18 39.55 232.11 44.05 232.22 C 43.35 235.83 42.58 239.43 41.88 243.05 C 37.29 243.19 32.70 243.19 28.11 243.06 C 28.97 239.50 29.78 235.94 30.55 232.36 Z" />
<path fill="#131b28" opacity="1.00" d=" M 115.24 232.27 C 119.28 232.19 123.32 232.17 127.37 232.16 C 127.19 244.33 120.92 255.82 122.97 268.13 C 127.60 268.25 132.23 268.23 136.87 268.08 C 139.54 256.24 142.18 244.40 144.68 232.53 C 148.80 232.46 152.93 232.45 157.05 232.42 C 153.91 248.33 150.51 264.19 147.08 280.04 C 137.44 280.08 127.74 280.87 118.12 279.75 C 114.16 279.27 110.66 276.32 109.67 272.43 C 108.26 267.14 109.67 261.67 110.44 256.40 C 111.93 248.33 113.37 240.26 115.24 232.27 Z" />
<path fill="#131b28" opacity="1.00" d=" M 215.17 232.15 C 225.12 232.27 235.08 231.91 245.03 232.22 C 247.75 232.34 251.00 232.84 252.53 235.41 C 253.98 237.96 254.21 240.96 254.86 243.77 C 245.04 243.96 235.22 243.52 225.41 244.03 C 223.10 256.05 220.21 267.95 217.89 279.97 C 213.58 280.07 209.28 280.08 204.97 280.02 C 208.39 264.07 211.79 248.11 215.17 232.15 Z" />
<path fill="#131b28" opacity="1.00" d=" M 27.79 247.05 C 32.19 247.19 36.59 247.19 40.99 247.15 C 38.35 259.08 35.89 271.05 32.92 282.90 C 31.77 287.11 30.80 291.56 28.14 295.13 C 26.31 297.67 23.31 298.91 20.49 300.00 L 5.95 300.00 C 7.13 296.19 8.03 292.30 9.06 288.45 C 12.06 287.73 16.31 288.19 17.66 284.71 C 23.68 272.95 22.77 259.16 27.79 247.05 Z" />
</g>
</svg>
