<?xml version="1.0" encoding="iso-8859-1"?>
<!-- Generator: Adobe Illustrator 18.0.0, SVG Export Plug-In . SVG Version: 6.00 Build 0)  -->
<!DOCTYPE svg PUBLIC "-//W3C//DTD SVG 1.1//EN" "http://www.w3.org/Graphics/SVG/1.1/DTD/svg11.dtd">
<svg xmlns="http://www.w3.org/2000/svg" xmlns:xlink="http://www.w3.org/1999/xlink" version="1.1" id="Capa_1" x="0px" y="0px" viewBox="0 0 455.376 455.376" style="enable-background:new 0 0 455.376 455.376;" xml:space="preserve" width="512px" height="512px">
<path d="M454.885,109.029l-8.27-21.709c-0.775-2.036-2.398-3.634-4.445-4.378l-8.717-3.17l-9.27-16.903  c-7.19-13.111-19.711-22.373-34.353-25.411c-14.638-3.037-29.813,0.478-41.627,9.646l-28.216,21.899l-83.695,35.87  c-5.386,2.308-11.087,3.511-16.945,3.576l-70.874,0.786c0.475-8.45-2.342-16.866-8.174-23.459  c-10.207-11.538-26.205-15.722-40.753-10.662c-19.999,6.956-36.778,20.922-47.249,39.326  c-12.946,22.753-24.529,46.578-34.429,70.813L6.36,213.43c-3.043,7.449-3.653,15.521-1.766,23.344l11.328,46.929  c4.446,18.42-0.728,37.584-13.838,51.265c-1.827,1.907-2.517,4.634-1.815,7.18l19.642,71.328c0.896,3.254,3.855,5.509,7.23,5.509  h42.384c2.521,0,4.873-1.267,6.262-3.371c1.388-2.105,1.625-4.766,0.632-7.083l-9.304-21.708c-1.182-2.758-3.894-4.546-6.894-4.546  H50.24l-6.046-19.479c7.732-5.642,23.885-18.358,40.023-36.83c14.701-16.826,25.807-34.421,33.117-52.287l137.3,45.159  l-8.839,26.134c-2.804,8.288-2.693,17.379,0.309,25.597l15.89,43.488c1.081,2.958,3.896,4.926,7.045,4.926h50.653  c2.625,0,5.059-1.372,6.417-3.617c1.358-2.245,1.444-5.038,0.227-7.363l-11.371-21.708c-1.294-2.471-3.854-4.02-6.644-4.02h-6.595  l-3.759-8.056l31.104-68.788l46.339-41.828c8.188-7.39,14.122-16.899,17.164-27.498l24.411-85.048  c18.717-4.31,33.43-18.591,38.167-37.54C455.524,112.03,455.43,110.463,454.885,109.029z M378.156,231.969  c-2.268,7.902-6.692,14.992-12.797,20.502l-20.85,18.82l5.793-12.811c1.706-3.774,0.03-8.217-3.744-9.924  c-3.776-1.708-8.218-0.03-9.924,3.744L282.879,371.18c-0.901,1.993-0.888,4.28,0.038,6.262l7.236,15.506  c1.231,2.641,3.882,4.328,6.796,4.328h6.833l3.514,6.708h-33.014l-14.089-38.562c-1.835-5.023-1.902-10.578-0.189-15.644  l20.273-59.941c1.327-3.924-0.777-8.181-4.701-9.508c-3.925-1.326-8.181,0.777-9.508,4.702l-6.628,19.596l-137.133-45.104  c3.874-13.147,5.697-26.369,5.37-39.47c-0.104-4.141-3.527-7.415-7.686-7.31c-4.141,0.104-7.414,3.544-7.311,7.685  c1.005,40.171-20.927,74.037-39.502,95.374c-20.532,23.585-41.669,37.583-41.876,37.719c-2.801,1.833-4.047,5.301-3.055,8.498  L37.552,392c0.974,3.138,3.877,5.277,7.163,5.277h10.562l2.875,6.708H32.855l-17.034-61.861  c14.507-17.103,19.993-39.94,14.684-61.941l-11.328-46.929c-1.145-4.742-0.774-9.636,1.07-14.152l11.509-28.178  c9.654-23.637,20.952-46.875,33.579-69.067c8.674-15.245,22.574-26.814,39.14-32.576c8.779-3.053,18.431-0.528,24.591,6.433  c4.468,5.051,5.688,12.078,3.183,18.338c-2.786,6.966-9.676,11.441-17.19,11.134l-22.069-0.901  c-0.089-0.003-0.297-0.012-0.465-0.256c-0.169-0.245-0.104-0.443-0.076-0.525c0.078-0.234,0.28-0.389,0.528-0.406  c20.213-1.378,31.8-6.984,34.438-16.662c1.09-3.996-1.261-8.135-5.257-9.224c-3.996-1.089-8.114,1.252-9.204,5.248  c-0.629,1.372-6.79,4.705-20.997,5.673c-6.337,0.432-11.729,4.602-13.738,10.627c-1.564,4.693-0.85,9.719,1.961,13.791  c2.81,4.071,7.256,6.521,12.198,6.722l22.069,0.901c12.069,0.494,23.326-5.741,29.413-15.887l75.654-0.839  c7.844-0.087,15.477-1.698,22.688-4.788l77.779-33.334l10.064,22.632c2.154,5.654,6.573,10.222,12.16,12.561  c2.731,1.143,5.645,1.713,8.558,1.713c3.138,0,6.274-0.662,9.178-1.981c7.657-3.48,12.756-11.162,12.988-19.569l0.779-28.056  c0.115-4.141-3.148-7.59-7.289-7.705c-4.121-0.109-7.59,3.148-7.705,7.289l-0.779,28.057c-0.075,2.719-1.725,5.204-4.201,6.33  c-1.837,0.835-3.874,0.866-5.737,0.087c-1.862-0.779-3.271-2.252-3.966-4.147c-0.057-0.157-0.12-0.312-0.188-0.465l-10.774-24.23  l24.333-18.886c8.337-6.471,19.047-8.954,29.382-6.809c10.335,2.145,19.173,8.682,24.248,17.937l0.925,1.687  c-4.883,4.475-12.383,8.005-15.357,9.153c-3.862,1.484-5.793,5.816-4.314,9.681c1.144,2.987,3.988,4.821,7.007,4.821  c0.891,0,1.797-0.16,2.679-0.497c1.274-0.488,9.85-3.889,17.337-9.754l0.078,0.143l-14.863,20.678  c-4.952,6.89-7.561,15.016-7.542,23.501l0.017,7.671c-5.529-0.658-10.944-2.194-16.052-4.578c-3.75-1.752-8.217-0.13-9.968,3.624  c-1.752,3.753-0.13,8.216,3.624,9.968c8.324,3.886,17.283,5.994,26.37,6.295L378.156,231.969z M411.997,136.766l-0.016-7.303  c-0.012-5.312,1.621-10.4,4.722-14.713l14.307-19.905l2.809,1.021l6.166,16.188C435.935,124.895,425.257,134.318,411.997,136.766z" fill="#ff6549"/>
<g>
</g>
<g>
</g>
<g>
</g>
<g>
</g>
<g>
</g>
<g>
</g>
<g>
</g>
<g>
</g>
<g>
</g>
<g>
</g>
<g>
</g>
<g>
</g>
<g>
</g>
<g>
</g>
<g>
</g>
</svg>
