<?xml version="1.0" encoding="UTF-8" ?>
<!DOCTYPE svg PUBLIC "-//W3C//DTD SVG 1.1//EN" "http://www.w3.org/Graphics/SVG/1.1/DTD/svg11.dtd">
<svg width="100pt" height="100pt" viewBox="0 0 100 100" version="1.1" xmlns="http://www.w3.org/2000/svg">
<g id="#cd6799ff">
<path fill="#cd6799" opacity="1.00" d=" M 42.58 0.00 L 47.31 0.00 C 53.72 0.48 60.48 4.23 62.24 10.79 C 66.08 27.36 52.45 46.13 35.01 45.88 C 29.35 46.63 22.95 42.59 22.97 36.49 C 36.33 50.44 60.59 30.48 57.17 13.95 C 53.59 6.03 42.78 7.59 36.12 10.17 C 23.63 15.93 10.01 25.45 7.55 39.93 C 6.23 51.32 17.34 57.72 23.20 65.80 C 29.47 62.27 34.07 56.95 38.87 51.82 C 43.42 47.82 46.37 54.28 45.30 58.28 C 52.43 60.88 43.80 72.12 45.75 78.45 C 50.12 68.00 53.71 57.16 56.51 46.19 C 58.47 45.79 60.47 45.65 62.47 45.66 C 61.37 51.25 60.35 57.21 62.81 62.62 C 65.70 56.10 68.84 49.57 69.84 42.44 C 81.06 38.80 71.08 54.59 76.84 60.07 C 85.67 53.95 99.22 59.15 100.00 70.34 L 100.00 73.28 C 99.52 76.64 97.41 80.00 93.88 80.73 C 105.28 70.98 89.22 56.31 78.25 63.27 C 80.75 70.09 76.35 79.82 68.55 79.47 C 64.92 74.61 69.66 67.87 72.89 63.73 C 71.74 60.24 70.82 56.68 70.17 53.06 C 61.25 62.77 71.09 81.58 54.89 84.38 C 54.23 84.05 52.91 83.37 52.26 83.04 C 53.26 77.58 57.43 73.53 59.84 68.69 C 58.49 64.91 57.31 61.06 56.90 57.05 C 52.33 66.36 52.21 80.91 42.72 86.02 C 41.12 82.80 41.23 79.17 41.28 75.68 C 39.38 79.40 39.25 89.29 32.93 87.34 C 28.20 80.97 29.19 72.35 30.60 65.02 C 28.83 66.42 27.05 67.81 25.26 69.17 C 28.65 80.55 24.92 96.61 12.09 100.00 L 9.27 100.00 C -5.11 92.27 9.13 73.60 19.64 68.53 C 12.13 60.78 2.12 53.96 0.00 42.61 L 0.00 39.15 C 4.14 19.02 23.23 4.26 42.58 0.00 M 35.89 80.23 C 39.31 72.52 41.70 64.19 42.65 55.81 C 34.80 59.77 32.95 72.53 35.89 80.23 M 70.55 75.92 C 74.08 73.99 75.48 69.73 74.41 65.96 C 72.37 68.90 70.57 72.23 70.55 75.92 M 10.87 92.45 C 20.57 91.81 23.78 79.30 22.15 71.20 C 16.11 76.00 5.98 84.11 10.87 92.45 M 55.98 80.55 C 58.98 78.80 61.16 75.81 61.13 72.25 C 59.47 75.05 57.71 77.79 55.98 80.55 Z" />
</g>
</svg>
