<?xml version="1.0" encoding="UTF-8" ?>
<!DOCTYPE svg PUBLIC "-//W3C//DTD SVG 1.1//EN" "http://www.w3.org/Graphics/SVG/1.1/DTD/svg11.dtd">
<svg width="341pt" height="378pt" viewBox="0 0 341 378" version="1.1" xmlns="http://www.w3.org/2000/svg">
<g id="#222222ff">
<path fill="#222222" opacity="1.00" d=" M 71.51 0.00 L 72.99 0.00 C 89.27 81.24 106.20 162.36 122.62 243.57 C 123.45 247.63 124.19 251.72 125.37 255.69 C 138.17 296.19 151.16 336.63 163.83 377.15 C 160.81 373.05 158.44 368.53 155.83 364.18 C 112.14 290.50 68.57 216.76 24.84 143.11 C 23.39 140.23 20.26 137.27 21.84 133.80 C 26.42 120.17 31.38 106.66 35.80 92.98 C 23.92 90.07 11.92 87.71 0.00 84.97 L 0.00 81.60 C 2.20 61.19 3.38 40.69 5.39 20.27 C 27.28 13.03 49.67 7.37 71.51 0.00 Z" />
<path fill="#222222" opacity="1.00" d=" M 268.07 0.00 L 269.53 0.00 C 291.35 7.39 313.73 13.03 335.60 20.26 C 337.62 40.68 338.79 61.19 341.00 81.59 L 341.00 84.97 C 329.08 87.72 317.07 90.07 305.20 92.98 C 309.62 106.67 314.57 120.18 319.16 133.80 C 319.82 135.43 319.78 137.23 318.75 138.69 C 276.22 211.18 233.71 283.69 191.19 356.19 C 186.97 363.44 182.57 370.59 178.62 378.00 L 178.03 378.00 C 183.00 363.11 187.29 347.98 191.99 333.00 C 200.09 306.22 208.53 279.54 216.45 252.70 C 233.68 168.48 250.99 84.26 268.07 0.00 Z" />
</g>
<g id="#eeeeeeff">
<path fill="#eeeeee" opacity="1.00" d=" M 76.96 0.00 L 79.25 0.00 C 106.41 14.72 133.36 29.82 160.58 44.43 C 163.96 46.56 167.50 48.46 171.19 49.98 C 172.57 50.41 173.72 49.55 174.80 48.84 C 204.47 32.61 234.19 16.47 263.73 0.00 L 266.30 0.00 C 260.40 16.37 254.80 32.85 249.37 49.39 C 245.68 58.49 243.07 67.98 239.67 77.18 C 236.19 76.97 233.04 75.41 229.86 74.16 C 214.55 68.55 199.35 62.69 184.11 56.90 C 179.78 55.56 175.74 53.21 171.22 52.50 C 157.40 57.43 143.73 62.82 130.00 68.00 C 121.35 71.39 112.49 74.28 103.96 77.97 C 100.75 69.70 98.58 61.05 95.15 52.86 C 91.20 41.41 87.58 29.85 83.57 18.42 C 80.94 12.44 79.54 6.00 76.96 0.00 Z" />
</g>
<g id="#ff6448ff">
<path fill="#ff6448" opacity="1.00" d=" M 168.99 59.95 C 170.12 59.54 171.37 58.53 172.58 59.33 C 185.73 64.81 198.87 70.35 212.21 75.36 C 208.74 81.23 207.01 87.91 204.04 94.01 C 202.60 96.89 202.07 100.41 199.69 102.70 C 194.48 103.97 189.23 105.09 183.93 105.90 C 180.81 106.19 177.60 105.63 174.57 106.62 C 171.70 107.73 168.94 105.69 166.04 105.99 C 157.99 106.44 150.15 104.24 142.31 102.73 C 140.31 101.08 140.12 98.21 139.00 96.00 C 136.35 89.11 132.89 82.49 130.83 75.40 C 143.45 70.01 156.33 65.23 168.99 59.95 Z" />
<path fill="#ff6448" opacity="1.00" d=" M 141.07 107.87 C 154.37 109.09 167.77 112.62 181.15 110.21 C 187.76 109.72 194.31 108.59 200.90 107.87 C 200.62 114.62 202.34 121.22 202.10 127.98 C 203.33 134.27 202.66 140.73 203.91 147.02 C 203.61 154.06 205.26 160.94 205.10 167.98 C 205.95 172.57 205.99 177.23 206.18 181.88 C 207.41 187.87 206.65 194.03 207.91 200.02 C 207.68 207.36 209.25 214.54 209.18 221.87 C 210.44 227.27 209.54 232.86 210.71 238.26 C 211.20 242.51 210.90 246.81 211.49 251.06 C 209.74 260.14 205.83 268.63 203.56 277.58 C 192.78 311.00 182.66 344.63 171.73 378.00 L 170.14 378.00 C 168.30 370.74 165.61 363.74 163.44 356.58 C 161.74 349.87 159.09 343.45 157.22 336.79 C 155.25 329.34 152.31 322.20 150.22 314.79 C 148.56 308.35 146.00 302.19 144.22 295.80 C 142.12 287.82 138.88 280.19 136.78 272.21 C 135.20 266.31 132.78 260.68 131.20 254.79 C 130.75 249.79 130.74 244.68 131.71 239.74 C 132.33 235.65 131.63 231.48 132.43 227.42 C 133.44 222.86 132.56 218.14 133.57 213.59 C 134.42 209.24 133.58 204.76 134.43 200.42 C 135.44 195.86 134.56 191.14 135.57 186.58 C 136.37 182.29 135.60 177.86 136.57 173.58 C 137.42 169.24 136.58 164.76 137.43 160.41 C 138.44 155.86 137.56 151.14 138.57 146.58 C 139.42 142.24 138.58 137.76 139.43 133.42 C 140.40 129.14 139.62 124.71 140.43 120.42 C 141.28 116.29 140.93 112.05 141.07 107.87 Z" />
</g>
</svg>
